<?xml version="1.0" encoding="UTF-8"?>
<svg xmlns="http://www.w3.org/2000/svg" xmlns:xlink="http://www.w3.org/1999/xlink" width="1254" height="1254" viewBox="0 0 1254 1254" role="img" aria-labelledby="title desc">
  <title id="title">绿色梨形萌芽吉祥物</title>
  <desc id="desc">根据参考图绘制的可编辑矢量插画，包含梨形身体、萌芽叶片、挥手手臂、双腿和笑脸。</desc>
  <defs>
    <radialGradient id="bodyGradient" cx="40%" cy="32%" r="78%">
      <stop offset="0" stop-color="#aed568"/>
      <stop offset="0.52" stop-color="#9dca5d"/>
      <stop offset="1" stop-color="#8cbc50"/>
    </radialGradient>
    <linearGradient id="darkGreenGradient" x1="0" y1="0" x2="1" y2="1">
      <stop offset="0" stop-color="#247c53"/>
      <stop offset="0.55" stop-color="#116a43"/>
      <stop offset="1" stop-color="#1b7650"/>
    </linearGradient>
    <linearGradient id="leafGradient" x1="0.05" y1="0.1" x2="0.95" y2="0.9">
      <stop offset="0" stop-color="#227b52"/>
      <stop offset="0.65" stop-color="#0e623e"/>
      <stop offset="1" stop-color="#176d47"/>
    </linearGradient>
    <linearGradient id="eyeGradient" x1="0" y1="0" x2="0.8" y2="1">
      <stop offset="0" stop-color="#202722"/>
      <stop offset="1" stop-color="#0b0f0d"/>
    </linearGradient>
    <linearGradient id="tongueGradient" x1="0" y1="0" x2="0" y2="1">
      <stop offset="0" stop-color="#ee6c73"/>
      <stop offset="1" stop-color="#e95566"/>
    </linearGradient>
    <filter id="softBlur" x="-30%" y="-30%" width="160%" height="160%">
      <feGaussianBlur stdDeviation="24"/>
    </filter>
    <filter id="tinySoft" x="-20%" y="-20%" width="140%" height="140%">
      <feGaussianBlur stdDeviation="0.8"/>
    </filter>
    <clipPath id="bodyClip"><path d="M 603 336 C 594.25 339.55 565.08 355.43 551 365 C 536.92 374.57 512.57 394.66 500 406 C 487.43 417.34 470.75 434.06 459 448 C 447.25 461.94 425.07 490.51 414 508 C 402.93 525.49 385.65 558.64 378 576 C 370.35 593.36 361.83 620.92 358 635 C 354.17 649.08 351.09 665.06 350 679 C 348.91 692.94 348.91 723.33 350 737 C 351.09 750.67 353.49 765.47 358 779 C 362.51 792.53 375.07 822.33 383 836 C 390.93 849.67 406.43 868.89 416 879 C 425.57 889.11 441.38 902.07 453 910 C 464.62 917.93 487.74 931.12 501 937 C 514.26 942.88 535.1 949.72 550 953 C 564.9 956.28 594.42 960.04 610 961 C 625.58 961.96 651.29 960.96 664 960 C 676.71 959.04 690.29 957.14 703 954 C 715.71 950.86 743.47 942.74 757 937 C 770.53 931.26 789.43 921.43 802 912 C 814.57 902.57 838.34 880.98 849 868 C 859.66 855.02 873.85 829.44 880 817 C 886.15 804.56 890.86 790.26 894 777 C 897.14 763.74 901.91 735.72 903 720 C 904.09 704.28 903.91 678.67 902 662 C 900.09 645.33 895.15 617.27 889 598 C 882.85 578.73 866.57 539.86 857 521 C 847.43 502.14 831.44 477.08 819 460 C 806.56 442.92 780.49 411.17 766 396 C 751.51 380.83 721.34 355.56 713 349 C 704.66 342.44 710.47 346.22 705 348 C 699.53 349.78 680.65 357.76 673 362 C 665.35 366.24 656.93 382.14 649 379 C 641.07 375.86 621.29 344.88 615 339 C 608.71 333.12 611.75 332.45 603 336 Z"/></clipPath>
    <clipPath id="mouthClip"><path d="M 573 732 C 590 740 605 744 621 744 C 638 744 652 743 665 738 C 671 738 675 742 676 748 C 677 764 669 783 656 795 C 646 804 632 810 617 810 C 597 810 581 801 572 784 C 565 771 561 752 563 741 C 564 735 568 731 573 732 Z"/></clipPath>
  </defs>


  <g id="plant-and-limbs" fill="url(#darkGreenGradient)">
    <path id="leaf-and-stem" d="M 927 170 C 923.28 166.4 903.04 160.92 895 159 C 886.96 157.08 870.68 154.36 860 154 C 849.32 153.64 817.4 154.32 806 156 C 794.6 157.68 775.68 162.24 765 168 C 754.32 173.76 724.92 196.8 717 204 C 709.08 211.2 703.56 220.08 699 228 C 694.44 235.92 683.44 271.56 679 270 C 674.56 268.44 665.72 222.56 662 215 C 658.28 207.44 651.72 207.48 648 207 C 644.28 206.52 633.76 208.36 631 211 C 628.24 213.64 623.92 219.76 625 229 C 626.08 238.24 638.92 272.4 640 288 C 641.08 303.6 632.92 348.2 634 359 C 635.08 369.8 644.44 377.52 649 378 C 653.56 378.48 668.16 372.24 672 363 C 675.84 353.76 674.88 307.24 681 301 C 687.12 294.76 712.08 309.56 723 311 C 733.92 312.44 762.04 313.48 772 313 C 781.96 312.52 796.88 310 806 307 C 815.12 304 840.56 292.08 848 288 C 855.44 283.92 861.88 279 868 273 C 874.12 267 892.04 248.08 899 238 C 905.96 227.92 922.64 197.16 926 189 C 929.36 180.84 930.72 173.6 927 170 Z" fill="url(#leafGradient)"/>
    <path id="leaf-vein" d="M 678 286 C 716 257 758 230 810 216" fill="none" stroke="#abd263" stroke-width="7" stroke-linecap="round"/>
    <path id="left-arm" d="M 215 534 C 212.52 536.27 205.14 546.45 204 551 C 202.86 555.55 205.55 575 204 578 C 202.45 581 191.38 578.86 189 580 C 186.62 581.14 181.83 586.42 181 589 C 180.17 591.58 180.38 602.11 181 605 C 181.62 607.89 182.14 611.63 187 617 C 191.86 622.37 221.49 649.46 228 657 C 234.51 664.54 244.21 682.97 250 690 C 255.79 697.03 276.56 718.7 284 725 C 291.44 731.3 314.77 746.97 322 751 C 329.23 755.03 351.31 766.79 354 764 C 356.69 761.21 348.41 732.68 348 724 C 347.59 715.32 352.38 687.23 350 680 C 347.62 672.77 329.34 660.41 325 654 C 320.66 647.59 308.31 625.03 308 618 C 307.69 610.97 320.55 591.27 322 586 C 323.45 580.73 322.83 569.79 322 567 C 321.17 564.21 316.27 559.93 314 559 C 311.73 558.07 303.51 556.35 300 558 C 296.49 559.65 283.82 576.14 280 575 C 276.18 573.86 266.31 551.34 263 547 C 259.69 542.66 251.62 534.86 248 533 C 244.38 531.14 231.41 528.9 228 529 C 224.59 529.1 217.48 531.73 215 534 Z"/>
    <path id="right-arm" d="M 902 739 C 897.66 739.72 897.17 769.15 895 777 C 892.83 784.85 881.72 809.42 881 815 C 880.28 820.58 887.38 828.11 888 831 C 888.62 833.89 889.58 839.8 887 843 C 884.42 846.2 866.2 858.8 863 862 C 859.8 865.2 856.52 871.31 856 874 C 855.48 876.69 856.45 885.52 858 888 C 859.55 890.48 870.28 895.31 871 898 C 871.72 900.69 865.41 910.59 865 914 C 864.59 917.41 865.76 928 867 931 C 868.24 934 874.11 941.04 877 943 C 879.89 944.96 890.14 949.79 895 950 C 899.86 950.21 918.32 947.58 924 945 C 929.68 942.42 945.66 930.06 950 925 C 954.34 919.94 963.73 901.99 966 896 C 968.27 890.01 971.69 873.61 972 867 C 972.31 860.39 970.65 839.13 969 832 C 967.35 824.87 959.31 804.41 956 798 C 952.69 791.59 942.58 776.1 937 770 C 931.42 763.9 906.34 738.28 902 739 Z"/>
    <path id="left-leg" d="M 496 935 C 492.69 941.82 501.69 1006.11 499 1015 C 496.31 1023.89 474.65 1019.35 470 1021 C 465.35 1022.65 456.58 1028.31 454 1031 C 451.42 1033.69 445.93 1043.49 445 1047 C 444.07 1050.51 443.97 1061.8 445 1065 C 446.03 1068.2 451.07 1075.93 455 1078 C 458.93 1080.07 475.66 1084.59 483 1085 C 490.34 1085.41 517.94 1083.24 526 1082 C 534.06 1080.76 556.45 1074.55 561 1073 C 565.55 1071.45 568.76 1068.45 570 1067 C 571.24 1065.55 572.69 1070.26 573 1059 C 573.31 1047.74 577.34 969.37 573 958 C 568.66 946.63 538.96 951.38 531 949 C 523.04 946.62 499.31 928.18 496 935 Z"/>
    <path id="right-leg" d="M 759 937 C 755.8 930.39 731.27 947.73 723 950 C 714.73 952.27 683.55 947.74 679 959 C 674.45 970.26 678.17 1047.43 679 1059 C 679.83 1070.57 682.04 1068.62 687 1071 C 691.96 1073.38 718.84 1080.55 727 1082 C 735.16 1083.45 759.08 1085.21 766 1085 C 772.92 1084.79 789.76 1081.86 794 1080 C 798.24 1078.14 805.45 1069.89 807 1067 C 808.55 1064.11 809.62 1055.41 809 1052 C 808.38 1048.59 803.48 1037.1 801 1034 C 798.52 1030.9 789.86 1024.07 785 1022 C 780.14 1019.93 756.69 1022.78 754 1014 C 751.31 1005.22 762.2 943.61 759 937 Z"/>
  </g>

  <g id="body">
    <path id="pear-body" d="M 603 336 C 594.25 339.55 565.08 355.43 551 365 C 536.92 374.57 512.57 394.66 500 406 C 487.43 417.34 470.75 434.06 459 448 C 447.25 461.94 425.07 490.51 414 508 C 402.93 525.49 385.65 558.64 378 576 C 370.35 593.36 361.83 620.92 358 635 C 354.17 649.08 351.09 665.06 350 679 C 348.91 692.94 348.91 723.33 350 737 C 351.09 750.67 353.49 765.47 358 779 C 362.51 792.53 375.07 822.33 383 836 C 390.93 849.67 406.43 868.89 416 879 C 425.57 889.11 441.38 902.07 453 910 C 464.62 917.93 487.74 931.12 501 937 C 514.26 942.88 535.1 949.72 550 953 C 564.9 956.28 594.42 960.04 610 961 C 625.58 961.96 651.29 960.96 664 960 C 676.71 959.04 690.29 957.14 703 954 C 715.71 950.86 743.47 942.74 757 937 C 770.53 931.26 789.43 921.43 802 912 C 814.57 902.57 838.34 880.98 849 868 C 859.66 855.02 873.85 829.44 880 817 C 886.15 804.56 890.86 790.26 894 777 C 897.14 763.74 901.91 735.72 903 720 C 904.09 704.28 903.91 678.67 902 662 C 900.09 645.33 895.15 617.27 889 598 C 882.85 578.73 866.57 539.86 857 521 C 847.43 502.14 831.44 477.08 819 460 C 806.56 442.92 780.49 411.17 766 396 C 751.51 380.83 721.34 355.56 713 349 C 704.66 342.44 710.47 346.22 705 348 C 699.53 349.78 680.65 357.76 673 362 C 665.35 366.24 656.93 382.14 649 379 C 641.07 375.86 621.29 344.88 615 339 C 608.71 333.12 611.75 332.45 603 336 Z" fill="url(#bodyGradient)"/>
    <g clip-path="url(#bodyClip)" opacity="0.28" pointer-events="none">
      <ellipse cx="525" cy="505" rx="250" ry="190" fill="#ffffff" opacity="0.10" filter="url(#softBlur)"/>
      <ellipse cx="780" cy="790" rx="230" ry="185" fill="#658f38" opacity="0.08" filter="url(#softBlur)"/>
      <ellipse cx="480" cy="845" rx="190" ry="110" fill="#d3e995" opacity="0.06" filter="url(#softBlur)"/>
    </g>
  </g>

  <g id="face">
    <path id="left-eyebrow" d="M 549 561 C 548.48 560.02 543.17 554.6 541 554 C 538.83 553.4 521.35 553 520 553 C 518.65 553 523.6 553.85 523 554 C 522.4 554.15 513.73 554.48 512 555 C 510.27 555.52 501.35 560.1 500 561 C 498.65 561.9 494.52 566.1 494 567 C 493.48 567.9 492.85 572.25 493 573 C 493.15 573.75 495.32 576.62 496 577 C 496.68 577.38 499.98 578.67 502 578 C 504.02 577.33 519.85 568.6 523 568 C 526.15 567.4 542.12 570.08 544 570 C 545.88 569.92 547.62 567.67 548 567 C 548.38 566.33 549.52 561.98 549 561 Z" fill="#0c5a3d"/>
    <path id="right-eyebrow" d="M 732 585 C 731.33 585.83 731.7 589.33 732 590 C 732.3 590.67 734.27 593.55 736 594 C 737.73 594.45 752.08 594.73 755 596 C 757.92 597.27 773.12 609.88 775 611 C 776.88 612.12 779.25 611.38 780 611 C 780.75 610.62 784.77 606.98 785 606 C 785.23 605.02 784.58 599.73 783 598 C 781.42 596.27 767.15 584.42 764 583 C 760.85 581.58 743.4 578.85 741 579 C 738.6 579.15 732.67 584.17 732 585 Z" fill="#0c5a3d"/>

    <path id="left-eye" d="M 531 627 C 528.24 626.52 520.12 626.28 517 627 C 513.88 627.72 508 630.36 505 633 C 502 635.64 494.28 644.92 492 649 C 489.72 653.08 486.84 662.56 486 667 C 485.16 671.44 484.64 681.8 485 686 C 485.36 690.2 487.08 698.04 489 702 C 490.92 705.96 497.88 716.24 501 719 C 504.12 721.76 512.24 724.28 515 725 C 517.76 725.72 521.36 725.6 524 725 C 526.64 724.4 533.88 722.4 537 720 C 540.12 717.6 547.6 709.32 550 705 C 552.4 700.68 556.04 688.44 557 684 C 557.96 679.56 558.36 672.08 558 668 C 557.64 663.92 555.2 653.48 554 650 C 552.8 646.52 549.68 641.28 548 639 C 546.32 636.72 542.04 632.44 540 631 C 537.96 629.56 533.76 627.48 531 627 Z" fill="url(#eyeGradient)" filter="url(#tinySoft)"/>
    <path id="right-eye" d="M 738 645 C 735 644.52 729.6 644.32 726 646 C 722.4 647.68 711 656 708 659 C 705 662 702.44 667.4 701 671 C 699.56 674.6 696.6 684.92 696 689 C 695.4 693.08 695.16 700.44 696 705 C 696.84 709.56 700.84 722.92 703 727 C 705.16 731.08 711.12 736.96 714 739 C 716.88 741.04 723.76 743.64 727 744 C 730.24 744.36 737.52 743.56 741 742 C 744.48 740.44 753.12 734.24 756 731 C 758.88 727.76 763.44 719.08 765 715 C 766.56 710.92 768.64 701.2 769 697 C 769.36 692.8 768.96 684.32 768 680 C 767.04 675.68 763.04 664.6 761 661 C 758.96 657.4 753.76 651.92 751 650 C 748.24 648.08 741 645.48 738 645 Z" fill="url(#eyeGradient)" filter="url(#tinySoft)"/>
    <ellipse id="left-eye-highlight" cx="529.5" cy="654.8" rx="13" ry="17" fill="#ffffff" transform="rotate(-2 529.5 654.8)"/>
    <ellipse id="right-eye-highlight" cx="740" cy="673.7" rx="12.5" ry="16.5" fill="#ffffff" transform="rotate(-2 740 673.7)"/>

    <path id="mouth" d="M 573 732 C 590 740 605 744 621 744 C 638 744 652 743 665 738 C 671 738 675 742 676 748 C 677 764 669 783 656 795 C 646 804 632 810 617 810 C 597 810 581 801 572 784 C 565 771 561 752 563 741 C 564 735 568 731 573 732 Z" fill="#075a3d"/>
    <g clip-path="url(#mouthClip)">
      <path id="tongue" d="M 573 784 C 585 771 601 764 617 764 C 636 764 651 773 662 789 C 652 801 636 809 618 810 C 599 809 583 801 573 784 Z" fill="url(#tongueGradient)"/>
    </g>
  </g>
</svg>
